<?xml version="1.0" standalone="no"?>
<!DOCTYPE svg PUBLIC "-//W3C//DTD SVG 20010904//EN"
 "http://www.w3.org/TR/2001/REC-SVG-20010904/DTD/svg10.dtd">
<svg version="1.0" xmlns="http://www.w3.org/2000/svg"
 width="728.000000pt" height="343.000000pt" viewBox="0 0 728.000000 343.000000"
 preserveAspectRatio="xMidYMid meet">

<g transform="translate(0.000000,343.000000) scale(0.100000,-0.100000)"
fill="#cc1616" stroke="none">
<path d="M3476 3255 c-398 -83 -694 -365 -797 -759 -30 -115 -37 -311 -14
-430 117 -623 735 -991 1324 -789 316 108 561 377 653 717 19 68 22 108 23
251 0 147 -3 181 -23 255 -51 185 -130 325 -259 461 -126 131 -275 221 -458
275 -113 33 -337 42 -449 19z m22 -480 c159 -140 422 -400 441 -437 19 -37 11
-46 -131 -130 -65 -38 -118 -71 -118 -74 0 -10 58 -119 160 -299 59 -104 111
-201 115 -213 6 -21 5 -22 -12 -14 -75 41 -583 537 -583 569 0 25 36 52 167
127 46 26 86 52 89 57 3 6 -48 105 -114 222 -118 210 -162 291 -162 302 0 15
28 -5 148 -110z"/>
<path d="M70 810 l0 -39 105 -3 106 -3 -106 -143 c-86 -117 -105 -149 -105
-177 l0 -35 165 0 165 0 0 35 0 35 -105 0 c-58 0 -105 3 -105 6 0 3 45 68 100
144 88 121 100 143 100 179 l0 41 -160 0 -160 0 0 -40z"/>
<path d="M518 630 l-3 -220 153 0 152 0 0 35 0 35 -110 0 -110 0 0 55 0 55
103 0 c57 0 106 2 108 5 3 2 3 20 1 40 l-4 35 -104 0 -104 0 0 50 0 50 110 0
110 0 0 40 0 40 -150 0 -149 0 -3 -220z"/>
<path d="M938 844 c-3 -5 -6 -105 -7 -221 l-3 -213 46 0 45 0 3 78 3 77 35 0
c33 0 37 -4 79 -77 l43 -78 50 0 c56 0 56 -7 -10 104 -28 46 -33 61 -21 64 30
10 79 70 80 99 3 77 -13 116 -59 145 -31 19 -54 23 -158 26 -67 3 -124 0 -126
-4z m234 -91 c10 -9 18 -30 18 -49 0 -47 -29 -64 -107 -64 l-63 0 0 65 0 65
67 0 c48 0 72 -5 85 -17z"/>
<path d="M1400 631 l0 -221 43 0 42 0 -2 217 -2 218 -41 3 -40 3 0 -220z"/>
<path d="M1610 630 l0 -220 45 0 44 0 3 93 3 92 105 0 105 0 3 -92 3 -93 39 0
40 0 0 220 0 220 -40 0 -40 0 0 -90 0 -90 -110 0 -110 0 0 90 0 90 -45 0 -45
0 0 -220z"/>
<path d="M2132 688 c3 -124 8 -170 20 -193 34 -64 93 -95 178 -95 101 0 172
49 189 132 6 27 11 110 11 183 l0 135 -44 0 -44 0 -4 -153 c-3 -174 -12 -199
-74 -216 -54 -15 -104 5 -126 49 -15 28 -18 62 -18 178 l0 142 -46 0 -46 0 4
-162z"/>
<path d="M2660 630 l0 -220 40 0 40 0 0 140 c0 77 4 140 8 140 5 0 53 -63 108
-140 l99 -139 43 -1 42 0 0 220 0 220 -40 0 -40 0 0 -140 c0 -77 -3 -140 -7
-139 -5 0 -53 63 -107 140 l-100 139 -43 0 -43 0 0 -220z"/>
<path d="M3236 634 c-48 -119 -85 -219 -82 -221 13 -13 33 9 50 56 l18 52 121
-3 120 -3 20 -52 c14 -38 25 -53 38 -53 11 0 19 1 19 3 0 1 -40 99 -88 217
-72 176 -91 216 -109 218 -18 3 -30 -21 -107 -214z m163 43 c28 -70 51 -130
51 -132 0 -3 -47 -5 -105 -5 -80 0 -105 3 -105 13 0 11 35 102 86 226 8 19 16
32 18 30 2 -2 27 -61 55 -132z"/>
<path d="M3688 834 c-31 -16 -58 -61 -58 -94 0 -38 32 -79 75 -95 22 -8 65
-24 96 -35 81 -29 102 -60 86 -121 -10 -40 -52 -62 -115 -62 -44 0 -61 6 -97
31 -46 32 -71 27 -40 -8 47 -51 179 -64 240 -24 65 43 66 145 2 184 -18 11
-61 30 -97 42 -82 27 -106 43 -114 74 -21 84 119 135 198 73 29 -23 46 -24 46
-5 0 8 -19 24 -43 35 -51 25 -139 27 -179 5z"/>
<path d="M4109 836 c-35 -20 -62 -79 -54 -115 9 -42 43 -68 125 -96 90 -31
118 -48 131 -82 35 -94 -113 -156 -210 -88 -22 15 -45 24 -51 20 -30 -18 69
-74 131 -75 62 0 99 12 128 41 33 33 42 68 29 116 -11 40 -45 64 -138 95 -78
25 -107 43 -116 70 -9 28 13 73 43 89 40 21 118 17 153 -9 16 -12 34 -22 40
-22 18 0 6 22 -23 44 -36 26 -149 33 -188 12z"/>
<path d="M4585 835 c-78 -42 -116 -110 -116 -208 0 -71 11 -107 48 -156 65
-85 219 -95 301 -18 45 42 66 96 67 172 0 83 -26 139 -88 189 -34 27 -48 31
-110 34 -52 2 -80 -2 -102 -13z m162 -24 c26 -12 52 -35 70 -62 25 -38 28 -51
28 -123 0 -71 -3 -86 -27 -123 -35 -53 -78 -76 -143 -76 -65 0 -108 23 -143
76 -24 37 -27 52 -27 123 0 72 3 85 28 123 31 46 91 81 142 81 17 0 49 -9 72
-19z"/>
<path d="M5121 825 c-75 -44 -111 -107 -111 -200 0 -73 24 -129 73 -172 71
-62 180 -70 256 -20 39 26 53 47 31 47 -6 0 -28 -12 -50 -26 -83 -55 -197 -26
-251 65 -33 56 -36 145 -7 201 52 100 168 135 257 77 22 -15 45 -27 51 -27 15
0 12 15 -7 32 -63 55 -168 65 -242 23z"/>
<path d="M5507 843 c-4 -3 -7 -102 -7 -220 0 -183 2 -213 15 -213 13 0 15 31
15 220 0 201 -4 233 -23 213z"/>
<path d="M5811 828 c-5 -13 -43 -108 -85 -213 -42 -104 -76 -193 -76 -197 0
-5 6 -8 14 -8 7 0 24 25 36 55 l23 56 119 -3 120 -3 20 -52 c14 -39 25 -53 39
-53 22 0 32 -31 -85 257 -60 147 -76 179 -94 181 -15 2 -25 -4 -31 -20z m87
-150 c27 -70 47 -130 44 -133 -3 -3 -50 -5 -104 -5 -74 0 -98 3 -98 13 0 7 16
53 36 103 57 142 64 157 68 153 2 -2 26 -61 54 -131z"/>
<path d="M6070 835 c0 -12 15 -15 75 -15 l75 0 0 -205 c0 -176 2 -205 15 -205
13 0 15 29 15 205 l0 205 70 0 c56 0 70 3 70 15 0 13 -24 15 -160 15 -136 0
-160 -2 -160 -15z"/>
<path d="M6510 630 l0 -220 140 0 c176 0 190 18 18 22 l-123 3 0 90 0 90 118
3 c84 2 117 6 117 15 0 9 -32 12 -117 12 l-118 0 -3 87 -3 87 121 3 c167 4
157 22 -15 26 l-135 3 0 -221z"/>
<path d="M6975 832 c-44 -28 -57 -48 -59 -91 -1 -56 30 -85 123 -116 90 -29
119 -48 132 -81 10 -27 -9 -85 -31 -99 -49 -30 -138 -22 -192 17 -34 24 -57
15 -32 -13 29 -32 98 -52 159 -46 93 9 145 66 131 142 -9 45 -50 76 -141 105
-84 28 -111 44 -118 72 -13 49 31 96 100 105 28 3 50 -2 86 -21 27 -15 53 -24
58 -20 14 8 2 22 -41 44 -51 26 -134 27 -175 2z"/>
</g>
</svg>
